ffmpeg version 3.4.8-0ubuntu0.2 Copyright (c) 2000-2020 the FFmpeg developers
  built with gcc 7 (Ubuntu 7.5.0-3ubuntu1~18.04)
  configuration: --prefix=/usr --extra-version=0ubuntu0.2 --toolchain=hardened --libdir=/usr/lib/x86_64-linux-gnu --incdir=/usr/include/x86_64-linux-gnu --enable-gpl --disable-stripping --enable-avresample --enable-avisynth --enable-gnutls --enable-ladspa --enable-libass --enable-libbluray --enable-libbs2b --enable-libcaca --enable-libcdio --enable-libflite --enable-libfontconfig --enable-libfreetype --enable-libfribidi --enable-libgme --enable-libgsm --enable-libmp3lame --enable-libmysofa --enable-libopenjpeg --enable-libopenmpt --enable-libopus --enable-libpulse --enable-librubberband --enable-librsvg --enable-libshine --enable-libsnappy --enable-libsoxr --enable-libspeex --enable-libssh --enable-libtheora --enable-libtwolame --enable-libvorbis --enable-libvpx --enable-libwavpack --enable-libwebp --enable-libx265 --enable-libxml2 --enable-libxvid --enable-libzmq --enable-libzvbi --enable-omx --enable-openal --enable-opengl --enable-sdl2 --enable-libdc1394 --enable-libdrm --enable-libiec61883 --enable-chromaprint --enable-frei0r --enable-libopencv --enable-libx264 --enable-shared
  libavutil      55. 78.100 / 55. 78.100
  libavcodec     57.107.100 / 57.107.100
  libavformat    57. 83.100 / 57. 83.100
  libavdevice    57. 10.100 / 57. 10.100
  libavfilter     6.107.100 /  6.107.100
  libavresample   3.  7.  0 /  3.  7.  0
  libswscale      4.  8.100 /  4.  8.100
  libswresample   2.  9.100 /  2.  9.100
  libpostproc    54.  7.100 / 54.  7.100
[rawvideo @ 0x563d68a43a20] Estimating duration from bitrate, this may be inaccurate
Input #0, rawvideo, from '../../SVC-Encoder-20220109T061506Z-001/SVC-Encoder/Dataset/RollerCoaster/ERP_8x8/tile_yuv/Tile_43_480x240.yuv':
  Duration: 00:00:10.00, start: 0.000000, bitrate: 41472 kb/s
    Stream #0:0: Video: rawvideo (I420 / 0x30323449), yuv420p, 480x240, 41472 kb/s, 30 tbr, 30 tbn, 30 tbc
Stream mapping:
  Stream #0:0 -> #0:0 (rawvideo (native) -> h264 (libx264))
Press [q] to stop, [?] for help
[libx264 @ 0x563d68a50c60] using cpu capabilities: MMX2 SSE2Fast LZCNT SSSE3 SSE4.2 AVX
[libx264 @ 0x563d68a50c60] profile High, level 2.1
Output #0, rawvideo, to 'RollerCoaster_Tile_43_480x240_x264_QP_32.h264':
  Metadata:
    encoder         : Lavf57.83.100
    Stream #0:0: Video: h264 (libx264), yuv420p, 480x240, q=-1--1, 30 fps, 30 tbn, 30 tbc
    Metadata:
      encoder         : Lavc57.107.100 libx264
    Side data:
      cpb: bitrate max/min/avg: 0/0/0 buffer size: 0 vbv_delay: -1
frame=  155 fps=0.0 q=38.0 PSNR=Y:nan U:nan V:nan *:nan size=      73kB time=00:00:03.73 bitrate= 160.6kbits/s speed=7.46x    frame=  300 fps=277 q=38.0 LPSNR=Y:inf U:inf V:inf *:inf size=     184kB time=00:00:09.93 bitrate= 151.4kbits/s speed=9.17x    
video:184kB audio:0kB subtitle:0kB other streams:0kB global headers:0kB muxing overhead: 0.000000%
[libx264 @ 0x563d68a50c60] frame I:2     Avg QP:30.89  size:  7418  PSNR Mean Y:37.32 U:42.26 V:45.78 Avg:38.60 Global:38.56
[libx264 @ 0x563d68a50c60] frame P:79    Avg QP:32.25  size:  1420  PSNR Mean Y:35.82 U:42.48 V:45.64 Avg:37.24 Global:37.22
[libx264 @ 0x563d68a50c60] frame B:219   Avg QP:37.45  size:   278  PSNR Mean Y:35.71 U:42.65 V:45.69 Avg:37.15 Global:37.14
[libx264 @ 0x563d68a50c60] consecutive B-frames:  1.0%  4.7%  1.0% 93.3%
[libx264 @ 0x563d68a50c60] mb I  I16..4: 14.8% 66.4% 18.8%
[libx264 @ 0x563d68a50c60] mb P  I16..4:  1.1%  1.2%  0.4%  P16..4: 45.4% 15.3%  4.3%  0.0%  0.0%    skip:32.4%
[libx264 @ 0x563d68a50c60] mb B  I16..4:  0.0%  0.1%  0.0%  B16..8: 32.0%  2.7%  0.1%  direct: 0.1%  skip:64.9%  L0:34.5% L1:62.9% BI: 2.5%
[libx264 @ 0x563d68a50c60] 8x8 transform intra:54.9% inter:71.5%
[libx264 @ 0x563d68a50c60] coded y,uvDC,uvAC intra: 50.9% 58.5% 20.3% inter: 4.9% 4.6% 0.0%
[libx264 @ 0x563d68a50c60] i16 v,h,dc,p: 34% 32% 17% 16%
[libx264 @ 0x563d68a50c60] i8 v,h,dc,ddl,ddr,vr,hd,vl,hu: 14% 28% 20%  6%  3%  3%  9% 12%  5%
[libx264 @ 0x563d68a50c60] i4 v,h,dc,ddl,ddr,vr,hd,vl,hu: 15% 31% 16% 12%  3%  2%  8%  9%  4%
[libx264 @ 0x563d68a50c60] i8c dc,h,v,p: 54% 23% 12% 11%
[libx264 @ 0x563d68a50c60] Weighted P-Frames: Y:0.0% UV:0.0%
[libx264 @ 0x563d68a50c60] ref P L0: 62.5% 18.5% 15.2%  3.8%
[libx264 @ 0x563d68a50c60] ref B L0: 90.4%  7.8%  1.8%
[libx264 @ 0x563d68a50c60] ref B L1: 91.4%  8.6%
[libx264 @ 0x563d68a50c60] PSNR Mean Y:35.747 U:42.600 V:45.679 Avg:37.184 Global:37.167 kb/s:150.39
